<svg xmlns="http://www.w3.org/2000/svg" height="800" width="1200" viewBox="-12.29064 -13.9862 106.51888 83.9172"><g fill-rule="evenodd" fill="none"><path d="M24.6762 51.2562c12.767 1.457 25.867-2.122 32.778-2.858 1.956-.21 3.414-.065 4.243.567 1.256.96 1.225 2.167.187 4.327-1.066 2.206.33 3.196 2.773 2.355 6.257-2.156 18.944-13.47 17.099-29.78-1.875-16.55-17.338-27.315-40.734-25.709-23.785 1.638-39.225 13.834-40.911 27.73-1.047 8.642 5.163 21.152 24.566 23.368z" fill="#753C94"/><path d="M23.6712 29.1792l-2.652-4.501-2.648 4.5h5.3zm6.124 4.238a1.519 1.519 0 01-.581 2.098 1.565 1.565 0 01-.781.204 1.585 1.585 0 01-1.367-.77l-1.587-2.697h-8.916l-1.59 2.698c-.432.734-1.395.987-2.146.565a1.513 1.513 0 01-.581-2.098l2.02-3.433.006-.012 5.384-9.143c.28-.478.799-.77 1.363-.77.565 0 1.083.292 1.366.77l5.378 9.135.015.025zm11.463-5.576l5.353-5.228a1.51 1.51 0 000-2.173 1.595 1.595 0 00-2.224 0l-5.357 5.227-5.353-5.227a1.6 1.6 0 00-2.228 0 1.513 1.513 0 000 2.171l5.355 5.23-5.357 5.23a1.515 1.515 0 000 2.17c.31.305.712.453 1.112.453.407 0 .807-.148 1.115-.452l5.356-5.229 5.357 5.229c.308.304.711.452 1.112.452a1.57 1.57 0 001.112-.452 1.507 1.507 0 000-2.171zm8.822-7.852c-.869 0-1.572.69-1.572 1.535v12.66c0 .849.703 1.535 1.572 1.535.87 0 1.573-.686 1.573-1.535v-12.66c0-.846-.702-1.535-1.573-1.535zm20.095 11.031c0 2.593-2.159 4.699-4.812 4.699h-10.142c-.874 0-1.576-.686-1.576-1.535 0-.849.702-1.538 1.576-1.538h10.142c.918 0 1.666-.728 1.666-1.626 0-.897-.748-1.624-1.666-1.624h-7.335c-2.654 0-4.814-2.108-4.814-4.7 0-2.59 2.16-4.698 4.814-4.698h10.105c.87 0 1.574.686 1.574 1.536 0 .849-.704 1.536-1.574 1.536h-10.105c-.921 0-1.667.728-1.667 1.625s.746 1.628 1.667 1.628h7.335c2.653 0 4.812 2.106 4.812 4.697z" fill="#FFF"/></g></svg>